<svg xmlns="http://www.w3.org/2000/svg" xmlns:xlink="http://www.w3.org/1999/xlink" id="processonSvg1000" viewBox="158.0 28.0 962.0 1213.0" width="962.0" height="1213.0"><defs id="ProcessOnDefs1001"><marker id="ProcessOnMarker1023" markerUnits="userSpaceOnUse" orient="auto" markerWidth="16.23606797749979" markerHeight="10.550836550532098" viewBox="-1.0 -1.3763819204711736 16.23606797749979 10.550836550532098" refX="-1.0" refY="3.8990363547948754"><path id="ProcessOnPath1024" d="M12.0 3.8990363547948754L0.0 7.798072709589751V0.0Z" stroke="#323232" stroke-width="2.0" fill="#323232" transform="matrix(1.0,0.0,0.0,1.0,0.0,0.0)"/></marker><marker id="ProcessOnMarker1027" markerUnits="userSpaceOnUse" orient="auto" markerWidth="16.23606797749979" markerHeight="10.550836550532098" viewBox="-1.0 -1.3763819204711736 16.23606797749979 10.550836550532098" refX="-1.0" refY="3.8990363547948754"><path id="ProcessOnPath1028" d="M12.0 3.8990363547948754L0.0 7.798072709589751V0.0Z" stroke="#323232" stroke-width="2.0" fill="#323232" transform="matrix(1.0,0.0,0.0,1.0,0.0,0.0)"/></marker><marker id="ProcessOnMarker1031" markerUnits="userSpaceOnUse" orient="auto" markerWidth="16.23606797749979" markerHeight="10.550836550532098" viewBox="-1.0 -1.3763819204711736 16.23606797749979 10.550836550532098" refX="-1.0" refY="3.8990363547948754"><path id="ProcessOnPath1032" d="M12.0 3.8990363547948754L0.0 7.798072709589751V0.0Z" stroke="#323232" stroke-width="2.0" fill="#323232" transform="matrix(1.0,0.0,0.0,1.0,0.0,0.0)"/></marker><marker id="ProcessOnMarker1039" markerUnits="userSpaceOnUse" orient="auto" markerWidth="16.23606797749979" markerHeight="10.550836550532098" viewBox="-1.0 -1.3763819204711736 16.23606797749979 10.550836550532098" refX="-1.0" refY="3.8990363547948754"><path id="ProcessOnPath1040" d="M12.0 3.8990363547948754L0.0 7.798072709589751V0.0Z" stroke="#323232" stroke-width="2.0" fill="#323232" transform="matrix(1.0,0.0,0.0,1.0,0.0,0.0)"/></marker><marker id="ProcessOnMarker1047" markerUnits="userSpaceOnUse" orient="auto" markerWidth="16.23606797749979" markerHeight="10.550836550532098" viewBox="-1.0 -1.3763819204711736 16.23606797749979 10.550836550532098" refX="-1.0" refY="3.8990363547948754"><path id="ProcessOnPath1048" d="M12.0 3.8990363547948754L0.0 7.798072709589751V0.0Z" stroke="#323232" stroke-width="2.0" fill="#323232" transform="matrix(1.0,0.0,0.0,1.0,0.0,0.0)"/></marker><marker id="ProcessOnMarker1055" markerUnits="userSpaceOnUse" orient="auto" markerWidth="16.23606797749979" markerHeight="10.550836550532098" viewBox="-1.0 -1.3763819204711736 16.23606797749979 10.550836550532098" refX="-1.0" refY="3.8990363547948754"><path id="ProcessOnPath1056" d="M12.0 3.8990363547948754L0.0 7.798072709589751V0.0Z" stroke="#323232" stroke-width="2.0" fill="#323232" transform="matrix(1.0,0.0,0.0,1.0,0.0,0.0)"/></marker><marker id="ProcessOnMarker1067" markerUnits="userSpaceOnUse" orient="auto" markerWidth="16.23606797749979" markerHeight="10.550836550532098" viewBox="-1.0 -1.3763819204711736 16.23606797749979 10.550836550532098" refX="-1.0" refY="3.8990363547948754"><path id="ProcessOnPath1068" d="M12.0 3.8990363547948754L0.0 7.798072709589751V0.0Z" stroke="#323232" stroke-width="2.0" fill="#323232" transform="matrix(1.0,0.0,0.0,1.0,0.0,0.0)"/></marker><marker id="ProcessOnMarker1075" markerUnits="userSpaceOnUse" orient="auto" markerWidth="16.23606797749979" markerHeight="10.550836550532098" viewBox="-1.0 -1.3763819204711736 16.23606797749979 10.550836550532098" refX="-1.0" refY="3.8990363547948754"><path id="ProcessOnPath1076" d="M12.0 3.8990363547948754L0.0 7.798072709589751V0.0Z" stroke="#323232" stroke-width="2.0" fill="#323232" transform="matrix(1.0,0.0,0.0,1.0,0.0,0.0)"/></marker><marker id="ProcessOnMarker1083" markerUnits="userSpaceOnUse" orient="auto" markerWidth="16.23606797749979" markerHeight="10.550836550532098" viewBox="-1.0 -1.3763819204711736 16.23606797749979 10.550836550532098" refX="-1.0" refY="3.8990363547948754"><path id="ProcessOnPath1084" d="M12.0 3.8990363547948754L0.0 7.798072709589751V0.0Z" stroke="#323232" stroke-width="2.0" fill="#323232" transform="matrix(1.0,0.0,0.0,1.0,0.0,0.0)"/></marker><marker id="ProcessOnMarker1091" markerUnits="userSpaceOnUse" orient="auto" markerWidth="16.23606797749979" markerHeight="10.550836550532098" viewBox="-1.0 -1.3763819204711736 16.23606797749979 10.550836550532098" refX="-1.0" refY="3.8990363547948754"><path id="ProcessOnPath1092" d="M12.0 3.8990363547948754L0.0 7.798072709589751V0.0Z" stroke="#323232" stroke-width="2.0" fill="#323232" transform="matrix(1.0,0.0,0.0,1.0,0.0,0.0)"/></marker><marker id="ProcessOnMarker1103" markerUnits="userSpaceOnUse" orient="auto" markerWidth="16.23606797749979" markerHeight="10.550836550532098" viewBox="-1.0 -1.3763819204711736 16.23606797749979 10.550836550532098" refX="-1.0" refY="3.8990363547948754"><path id="ProcessOnPath1104" d="M12.0 3.8990363547948754L0.0 7.798072709589751V0.0Z" stroke="#323232" stroke-width="2.0" fill="#323232" transform="matrix(1.0,0.0,0.0,1.0,0.0,0.0)"/></marker><marker id="ProcessOnMarker1115" markerUnits="userSpaceOnUse" orient="auto" markerWidth="16.23606797749979" markerHeight="10.550836550532098" viewBox="-1.0 -1.3763819204711736 16.23606797749979 10.550836550532098" refX="-1.0" refY="3.8990363547948754"><path id="ProcessOnPath1116" d="M12.0 3.8990363547948754L0.0 7.798072709589751V0.0Z" stroke="#323232" stroke-width="2.0" fill="#323232" transform="matrix(1.0,0.0,0.0,1.0,0.0,0.0)"/></marker><marker id="ProcessOnMarker1123" markerUnits="userSpaceOnUse" orient="auto" markerWidth="16.23606797749979" markerHeight="10.550836550532098" viewBox="-1.0 -1.3763819204711736 16.23606797749979 10.550836550532098" refX="-1.0" refY="3.8990363547948754"><path id="ProcessOnPath1124" d="M12.0 3.8990363547948754L0.0 7.798072709589751V0.0Z" stroke="#323232" stroke-width="2.0" fill="#323232" transform="matrix(1.0,0.0,0.0,1.0,0.0,0.0)"/></marker><marker id="ProcessOnMarker1131" markerUnits="userSpaceOnUse" orient="auto" markerWidth="16.23606797749979" markerHeight="10.550836550532098" viewBox="-1.0 -1.3763819204711736 16.23606797749979 10.550836550532098" refX="-1.0" refY="3.8990363547948754"><path id="ProcessOnPath1132" d="M12.0 3.8990363547948754L0.0 7.798072709589751V0.0Z" stroke="#323232" stroke-width="2.0" fill="#323232" transform="matrix(1.0,0.0,0.0,1.0,0.0,0.0)"/></marker><marker id="ProcessOnMarker1139" markerUnits="userSpaceOnUse" orient="auto" markerWidth="16.23606797749979" markerHeight="10.550836550532098" viewBox="-1.0 -1.3763819204711736 16.23606797749979 10.550836550532098" refX="-1.0" refY="3.8990363547948754"><path id="ProcessOnPath1140" d="M12.0 3.8990363547948754L0.0 7.798072709589751V0.0Z" stroke="#323232" stroke-width="2.0" fill="#323232" transform="matrix(1.0,0.0,0.0,1.0,0.0,0.0)"/></marker><marker id="ProcessOnMarker1147" markerUnits="userSpaceOnUse" orient="auto" markerWidth="16.23606797749979" markerHeight="10.550836550532098" viewBox="-1.0 -1.3763819204711736 16.23606797749979 10.550836550532098" refX="-1.0" refY="3.8990363547948754"><path id="ProcessOnPath1148" d="M12.0 3.8990363547948754L0.0 7.798072709589751V0.0Z" stroke="#323232" stroke-width="2.0" fill="#323232" transform="matrix(1.0,0.0,0.0,1.0,0.0,0.0)"/></marker><marker id="ProcessOnMarker1155" markerUnits="userSpaceOnUse" orient="auto" markerWidth="16.23606797749979" markerHeight="10.550836550532098" viewBox="-1.0 -1.3763819204711736 16.23606797749979 10.550836550532098" refX="-1.0" refY="3.8990363547948754"><path id="ProcessOnPath1156" d="M12.0 3.8990363547948754L0.0 7.798072709589751V0.0Z" stroke="#323232" stroke-width="2.0" fill="#323232" transform="matrix(1.0,0.0,0.0,1.0,0.0,0.0)"/></marker><marker id="ProcessOnMarker1163" markerUnits="userSpaceOnUse" orient="auto" markerWidth="16.23606797749979" markerHeight="10.550836550532098" viewBox="-1.0 -1.3763819204711736 16.23606797749979 10.550836550532098" refX="-1.0" refY="3.8990363547948754"><path id="ProcessOnPath1164" d="M12.0 3.8990363547948754L0.0 7.798072709589751V0.0Z" stroke="#323232" stroke-width="2.0" fill="#323232" transform="matrix(1.0,0.0,0.0,1.0,0.0,0.0)"/></marker><marker id="ProcessOnMarker1171" markerUnits="userSpaceOnUse" orient="auto" markerWidth="16.23606797749979" markerHeight="10.550836550532098" viewBox="-1.0 -1.3763819204711736 16.23606797749979 10.550836550532098" refX="-1.0" refY="3.8990363547948754"><path id="ProcessOnPath1172" d="M12.0 3.8990363547948754L0.0 7.798072709589751V0.0Z" stroke="#323232" stroke-width="2.0" fill="#323232" transform="matrix(1.0,0.0,0.0,1.0,0.0,0.0)"/></marker><marker id="ProcessOnMarker1175" markerUnits="userSpaceOnUse" orient="auto" markerWidth="16.23606797749979" markerHeight="10.550836550532098" viewBox="-1.0 -1.3763819204711736 16.23606797749979 10.550836550532098" refX="-1.0" refY="3.8990363547948754"><path id="ProcessOnPath1176" d="M12.0 3.8990363547948754L0.0 7.798072709589751V0.0Z" stroke="#323232" stroke-width="2.0" fill="#323232" transform="matrix(1.0,0.0,0.0,1.0,0.0,0.0)"/></marker><marker id="ProcessOnMarker1183" markerUnits="userSpaceOnUse" orient="auto" markerWidth="16.23606797749979" markerHeight="10.550836550532098" viewBox="-1.0 -1.3763819204711736 16.23606797749979 10.550836550532098" refX="-1.0" refY="3.8990363547948754"><path id="ProcessOnPath1184" d="M12.0 3.8990363547948754L0.0 7.798072709589751V0.0Z" stroke="#323232" stroke-width="2.0" fill="#323232" transform="matrix(1.0,0.0,0.0,1.0,0.0,0.0)"/></marker><marker id="ProcessOnMarker1191" markerUnits="userSpaceOnUse" orient="auto" markerWidth="16.23606797749979" markerHeight="10.550836550532098" viewBox="-1.0 -1.3763819204711736 16.23606797749979 10.550836550532098" refX="-1.0" refY="3.8990363547948754"><path id="ProcessOnPath1192" d="M12.0 3.8990363547948754L0.0 7.798072709589751V0.0Z" stroke="#323232" stroke-width="2.0" fill="#323232" transform="matrix(1.0,0.0,0.0,1.0,0.0,0.0)"/></marker><marker id="ProcessOnMarker1195" markerUnits="userSpaceOnUse" orient="auto" markerWidth="16.23606797749979" markerHeight="10.550836550532098" viewBox="-1.0 -1.3763819204711736 16.23606797749979 10.550836550532098" refX="-1.0" refY="3.8990363547948754"><path id="ProcessOnPath1196" d="M12.0 3.8990363547948754L0.0 7.798072709589751V0.0Z" stroke="#323232" stroke-width="2.0" fill="#323232" transform="matrix(1.0,0.0,0.0,1.0,0.0,0.0)"/></marker><marker id="ProcessOnMarker1203" markerUnits="userSpaceOnUse" orient="auto" markerWidth="16.23606797749979" markerHeight="10.550836550532098" viewBox="-1.0 -1.3763819204711736 16.23606797749979 10.550836550532098" refX="-1.0" refY="3.8990363547948754"><path id="ProcessOnPath1204" d="M12.0 3.8990363547948754L0.0 7.798072709589751V0.0Z" stroke="#323232" stroke-width="2.0" fill="#323232" transform="matrix(1.0,0.0,0.0,1.0,0.0,0.0)"/></marker><marker id="ProcessOnMarker1207" markerUnits="userSpaceOnUse" orient="auto" markerWidth="16.23606797749979" markerHeight="10.550836550532098" viewBox="-1.0 -1.3763819204711736 16.23606797749979 10.550836550532098" refX="-1.0" refY="3.8990363547948754"><path id="ProcessOnPath1208" d="M12.0 3.8990363547948754L0.0 7.798072709589751V0.0Z" stroke="#323232" stroke-width="2.0" fill="#323232" transform="matrix(1.0,0.0,0.0,1.0,0.0,0.0)"/></marker></defs><g id="ProcessOnG1002"><path id="ProcessOnPath1003" d="M158.0 28.0H1120.0V1241.0H158.0V28.0Z" fill="none"/><g id="ProcessOnG1004"><g id="ProcessOnG1005" transform="matrix(1.0,0.0,0.0,1.0,528.0,48.0)" opacity="1.0"><path id="ProcessOnPath1006" d="M16.666666666666668 0L83.33333333333333 0C105.55555555555556 0 105.55555555555556 50.0 83.33333333333333 50.0L16.666666666666668 50.0C-5.555555555555556 50.0 -5.555555555555556 0 16.666666666666668 0Z" stroke="#323232" stroke-width="2.0" stroke-dasharray="none" fill="#6ed464"/><g id="ProcessOnG1007" transform="matrix(1.0,0.0,0.0,1.0,10.0,16.875)"><text id="ProcessOnText1008" fill="#323232" font-size="13" x="39.0" y="13.325" font-family="Arial" size="13" text-anchor="middle" font-weight="normal" font-style="normal" family="Arial" text-decoration="none">vm._init</text></g></g><g id="ProcessOnG1009" transform="matrix(1.0,0.0,0.0,1.0,509.0,133.0)" opacity="1.0"><path id="ProcessOnPath1010" d="M0 0L138.0 0L138.0 70.0L0 70.0Z" stroke="#323232" stroke-width="2.0" stroke-dasharray="none" fill="#6ed464"/><g id="ProcessOnG1011" transform="matrix(1.0,0.0,0.0,1.0,10.0,26.875)"><text id="ProcessOnText1012" fill="#323232" font-size="13" x="58.0" y="13.325" font-family="Arial" size="13" text-anchor="middle" font-weight="normal" font-style="normal" family="Arial" text-decoration="none">initState(vm)</text></g></g><g id="ProcessOnG1013" transform="matrix(1.0,0.0,0.0,1.0,509.0,243.0)" opacity="1.0"><path id="ProcessOnPath1014" d="M0 0L138.0 0L138.0 70.0L0 70.0Z" stroke="#323232" stroke-width="2.0" stroke-dasharray="none" fill="#6ed464"/><g id="ProcessOnG1015" transform="matrix(1.0,0.0,0.0,1.0,10.0,26.875)"><text id="ProcessOnText1016" fill="#323232" font-size="13" x="58.0" y="13.325" font-family="Arial" size="13" text-anchor="middle" font-weight="normal" font-style="normal" family="Arial" text-decoration="none">mountComponent</text></g></g><g id="ProcessOnG1017" transform="matrix(1.0,0.0,0.0,1.0,486.5,352.0)" opacity="1.0"><path id="ProcessOnPath1018" d="M0 0L183.0 0L183.0 69.0L0 69.0Z" stroke="#323232" stroke-width="2.0" stroke-dasharray="none" fill="#6ed464"/><g id="ProcessOnG1019" transform="matrix(1.0,0.0,0.0,1.0,10.0,26.375)"><text id="ProcessOnText1020" fill="#323232" font-size="13" x="80.5" y="13.325" font-family="Arial" size="13" text-anchor="middle" font-weight="normal" font-style="normal" family="Arial" text-decoration="none">new Watcher(arguments)</text></g></g><g id="ProcessOnG1021"><path id="ProcessOnPath1022" d="M578.0 98.0L578.0 115.5L578.0 115.5L578.0 117.76393202250021" stroke="#323232" stroke-width="2.0" stroke-dasharray="none" fill="none" marker-end="url(#ProcessOnMarker1023)"/></g><g id="ProcessOnG1025"><path id="ProcessOnPath1026" d="M578.0 203.0L578.0 223.0L578.0 223.0L578.0 227.7639320225002" stroke="#323232" stroke-width="2.0" stroke-dasharray="none" fill="none" marker-end="url(#ProcessOnMarker1027)"/></g><g id="ProcessOnG1029"><path id="ProcessOnPath1030" d="M578.0 313.0L578.0 332.5L578.0 332.5L578.0 336.7639320225002" stroke="#323232" stroke-width="2.0" stroke-dasharray="none" fill="none" marker-end="url(#ProcessOnMarker1031)"/></g><g id="ProcessOnG1033" transform="matrix(1.0,0.0,0.0,1.0,528.0,470.0)" opacity="1.0"><path id="ProcessOnPath1034" d="M0 0L100.0 0L100.0 70.0L0 70.0Z" stroke="#323232" stroke-width="2.0" stroke-dasharray="none" fill="#6ed464"/><g id="ProcessOnG1035" transform="matrix(1.0,0.0,0.0,1.0,10.0,26.875)"><text id="ProcessOnText1036" fill="#323232" font-size="13" x="39.0" y="13.325" font-family="Arial" size="13" text-anchor="middle" font-weight="normal" font-style="normal" family="Arial" text-decoration="none">render</text></g></g><g id="ProcessOnG1037"><path id="ProcessOnPath1038" d="M578.0 421.0L578.0 445.5L578.0 445.5L578.0 454.7639320225002" stroke="#323232" stroke-width="2.0" stroke-dasharray="none" fill="none" marker-end="url(#ProcessOnMarker1039)"/></g><g id="ProcessOnG1041" transform="matrix(1.0,0.0,0.0,1.0,486.5,586.0)" opacity="1.0"><path id="ProcessOnPath1042" d="M0 0L183.0 0L183.0 69.0L0 69.0Z" stroke="#323232" stroke-width="2.0" stroke-dasharray="none" fill="#6ed464"/><g id="ProcessOnG1043" transform="matrix(1.0,0.0,0.0,1.0,10.0,26.375)"><text id="ProcessOnText1044" fill="#323232" font-size="13" x="80.5" y="13.325" font-family="Arial" size="13" text-anchor="middle" font-weight="normal" font-style="normal" family="Arial" text-decoration="none">componentDidMount</text></g></g><g id="ProcessOnG1045"><path id="ProcessOnPath1046" d="M578.0 540.0L578.0 563.0L578.0 563.0L578.0 570.7639320225002" stroke="#323232" stroke-width="2.0" stroke-dasharray="none" fill="none" marker-end="url(#ProcessOnMarker1047)"/></g><g id="ProcessOnG1049" transform="matrix(1.0,0.0,0.0,1.0,255.0,133.0)" opacity="1.0"><path id="ProcessOnPath1050" d="M0 0L138.0 0L138.0 70.0L0 70.0Z" stroke="#323232" stroke-width="2.0" stroke-dasharray="none" fill="#6ed464"/><g id="ProcessOnG1051" transform="matrix(1.0,0.0,0.0,1.0,10.0,26.875)"><text id="ProcessOnText1052" fill="#323232" font-size="13" x="58.0" y="13.325" font-family="Arial" size="13" text-anchor="middle" font-weight="normal" font-style="normal" family="Arial" text-decoration="none">initData(vm)</text></g></g><g id="ProcessOnG1053"><path id="ProcessOnPath1054" d="M509.0 168.0L451.0 168.0L451.0 168.0L408.2360679774998 168.0" stroke="#323232" stroke-width="2.0" stroke-dasharray="none" fill="none" marker-end="url(#ProcessOnMarker1055)"/></g><g id="ProcessOnG1057" transform="matrix(1.0,0.0,0.0,1.0,371.0,133.0)" opacity="1.0"><path id="ProcessOnPath1058" d="M0 0L160.0 0L160.0 40.0L0 40.0Z" stroke="none" stroke-width="0.0" stroke-dasharray="none" fill="none"/><g id="ProcessOnG1059" transform="matrix(1.0,0.0,0.0,1.0,0.0,11.875)"><text id="ProcessOnText1060" fill="#323232" font-size="13" x="79.0" y="13.325" font-family="Arial" size="13" text-anchor="middle" font-weight="normal" font-style="normal" family="Arial" text-decoration="none">vm.$options.data</text></g></g><g id="ProcessOnG1061" transform="matrix(1.0,0.0,0.0,1.0,196.0,254.0)" opacity="1.0"><path id="ProcessOnPath1062" d="M0 0L256.0 0L256.0 62.0L0 62.0Z" stroke="#323232" stroke-width="2.0" stroke-dasharray="none" fill="#6ed464"/><g id="ProcessOnG1063" transform="matrix(1.0,0.0,0.0,1.0,10.0,22.875)"><text id="ProcessOnText1064" fill="#323232" font-size="13" x="117.0" y="13.325" font-family="Arial" size="13" text-anchor="middle" font-weight="normal" font-style="normal" family="Arial" text-decoration="none">observe(data, true /* asRootData */)</text></g></g><g id="ProcessOnG1065"><path id="ProcessOnPath1066" d="M324.0 203.0L324.0 228.5L324.0 228.5L324.0 238.7639320225002" stroke="#323232" stroke-width="2.0" stroke-dasharray="none" fill="none" marker-end="url(#ProcessOnMarker1067)"/></g><g id="ProcessOnG1069" transform="matrix(1.0,0.0,0.0,1.0,235.0,365.0)" opacity="1.0"><path id="ProcessOnPath1070" d="M0 0L178.0 0L178.0 68.0L0 68.0Z" stroke="#323232" stroke-width="2.0" stroke-dasharray="none" fill="#6ed464"/><g id="ProcessOnG1071" transform="matrix(1.0,0.0,0.0,1.0,10.0,25.875)"><text id="ProcessOnText1072" fill="#323232" font-size="13" x="78.0" y="13.325" font-family="Arial" size="13" text-anchor="middle" font-weight="normal" font-style="normal" family="Arial" text-decoration="none">  ob = new Observer(data)</text></g></g><g id="ProcessOnG1073"><path id="ProcessOnPath1074" d="M324.0 316.0L324.0 340.5L324.0 340.5L324.0 349.7639320225002" stroke="#323232" stroke-width="2.0" stroke-dasharray="none" fill="none" marker-end="url(#ProcessOnMarker1075)"/></g><g id="ProcessOnG1077" transform="matrix(1.0,0.0,0.0,1.0,274.0,470.0)" opacity="1.0"><path id="ProcessOnPath1078" d="M0 0L100.0 0L100.0 70.0L0 70.0Z" stroke="#323232" stroke-width="2.0" stroke-dasharray="none" fill="#6ed464"/><g id="ProcessOnG1079" transform="matrix(1.0,0.0,0.0,1.0,10.0,26.875)"><text id="ProcessOnText1080" fill="#323232" font-size="13" x="39.0" y="13.325" font-family="Arial" size="13" text-anchor="middle" font-weight="normal" font-style="normal" family="Arial" text-decoration="none">walk(data)</text></g></g><g id="ProcessOnG1081"><path id="ProcessOnPath1082" d="M324.0 433.0L324.0 451.5L324.0 451.5L324.0 454.7639320225002" stroke="#323232" stroke-width="2.0" stroke-dasharray="none" fill="none" marker-end="url(#ProcessOnMarker1083)"/></g><g id="ProcessOnG1085" transform="matrix(1.0,0.0,0.0,1.0,217.75,589.0)" opacity="1.0"><path id="ProcessOnPath1086" d="M0 0L212.5 0L212.5 69.0L0 69.0Z" stroke="#323232" stroke-width="2.0" stroke-dasharray="none" fill="#6ed464"/><g id="ProcessOnG1087" transform="matrix(1.0,0.0,0.0,1.0,10.0,26.375)"><text id="ProcessOnText1088" fill="#323232" font-size="13" x="95.25" y="13.325" font-family="Arial" size="13" text-anchor="middle" font-weight="normal" font-style="normal" family="Arial" text-decoration="none">defineReactive(data, keys[i])</text></g></g><g id="ProcessOnG1089"><path id="ProcessOnPath1090" d="M324.0 540.0L324.0 564.5L324.0 564.5L324.0 573.7639320225002" stroke="#323232" stroke-width="2.0" stroke-dasharray="none" fill="none" marker-end="url(#ProcessOnMarker1091)"/></g><g id="ProcessOnG1093" transform="matrix(1.0,0.0,0.0,1.0,178.0,540.0)" opacity="1.0"><path id="ProcessOnPath1094" d="M0 0L160.0 0L160.0 40.0L0 40.0Z" stroke="none" stroke-width="0.0" stroke-dasharray="none" fill="none"/><g id="ProcessOnG1095" transform="matrix(1.0,0.0,0.0,1.0,0.0,11.875)"><text id="ProcessOnText1096" fill="#323232" font-size="13" x="79.0" y="13.325" font-family="Arial" size="13" text-anchor="middle" font-weight="normal" font-style="normal" family="Arial" text-decoration="none">遍历data的每个属性</text></g></g><g id="ProcessOnG1097" transform="matrix(1.0,0.0,0.0,1.0,274.0,701.0)" opacity="1.0"><path id="ProcessOnPath1098" d="M0 0L100.0 0L100.0 70.0L0 70.0Z" stroke="#323232" stroke-width="2.0" stroke-dasharray="none" fill="#6ed464"/><g id="ProcessOnG1099" transform="matrix(1.0,0.0,0.0,1.0,10.0,26.875)"><text id="ProcessOnText1100" fill="#323232" font-size="13" x="39.0" y="13.325" font-family="Arial" size="13" text-anchor="middle" font-weight="normal" font-style="normal" family="Arial" text-decoration="none">walk(data)</text></g></g><g id="ProcessOnG1101"><path id="ProcessOnPath1102" d="M324.0 658.0L324.0 679.5L324.0 679.5L324.0 685.7639320225002" stroke="#323232" stroke-width="2.0" stroke-dasharray="none" fill="none" marker-end="url(#ProcessOnMarker1103)"/></g><g id="ProcessOnG1105" transform="matrix(1.0,0.0,0.0,1.0,398.0,813.0)" opacity="1.0"><path id="ProcessOnPath1106" d="M0 0L178.0 0L178.0 68.0L0 68.0Z" stroke="#323232" stroke-width="2.0" stroke-dasharray="none" fill="#6ed464"/><g id="ProcessOnG1107" transform="matrix(1.0,0.0,0.0,1.0,10.0,25.875)"><text id="ProcessOnText1108" fill="#323232" font-size="13" x="78.0" y="13.325" font-family="Arial" size="13" text-anchor="middle" font-weight="normal" font-style="normal" family="Arial" text-decoration="none"> subs[i].update()</text></g></g><g id="ProcessOnG1109" transform="matrix(1.0,0.0,0.0,1.0,398.0,926.0)" opacity="1.0"><path id="ProcessOnPath1110" d="M0 0L178.0 0L178.0 68.0L0 68.0Z" stroke="#323232" stroke-width="2.0" stroke-dasharray="none" fill="#6ed464"/><g id="ProcessOnG1111" transform="matrix(1.0,0.0,0.0,1.0,10.0,25.875)"><text id="ProcessOnText1112" fill="#323232" font-size="13" x="78.0" y="13.325" font-family="Arial" size="13" text-anchor="middle" font-weight="normal" font-style="normal" family="Arial" text-decoration="none"> queueWatcher(watcher)</text></g></g><g id="ProcessOnG1113"><path id="ProcessOnPath1114" d="M487.0 881.0L487.0 903.5L487.0 903.5L487.0 910.7639320225002" stroke="#323232" stroke-width="2.0" stroke-dasharray="none" fill="none" marker-end="url(#ProcessOnMarker1115)"/></g><g id="ProcessOnG1117" transform="matrix(1.0,0.0,0.0,1.0,398.0,1033.0)" opacity="1.0"><path id="ProcessOnPath1118" d="M0 0L178.0 0L178.0 68.0L0 68.0Z" stroke="#323232" stroke-width="2.0" stroke-dasharray="none" fill="#6ed464"/><g id="ProcessOnG1119" transform="matrix(1.0,0.0,0.0,1.0,10.0,25.875)"><text id="ProcessOnText1120" fill="#323232" font-size="13" x="78.0" y="13.325" font-family="Arial" size="13" text-anchor="middle" font-weight="normal" font-style="normal" family="Arial" text-decoration="none">flushSchedulerQueue</text></g></g><g id="ProcessOnG1121"><path id="ProcessOnPath1122" d="M487.0 994.0L487.0 1013.5L487.0 1013.5L487.0 1017.7639320225002" stroke="#323232" stroke-width="2.0" stroke-dasharray="none" fill="none" marker-end="url(#ProcessOnMarker1123)"/></g><g id="ProcessOnG1125" transform="matrix(1.0,0.0,0.0,1.0,295.0,1153.0)" opacity="1.0"><path id="ProcessOnPath1126" d="M0 0L178.0 0L178.0 68.0L0 68.0Z" stroke="#323232" stroke-width="2.0" stroke-dasharray="none" fill="#6ed464"/><g id="ProcessOnG1127" transform="matrix(1.0,0.0,0.0,1.0,10.0,25.875)"><text id="ProcessOnText1128" fill="#323232" font-size="13" x="78.0" y="13.325" font-family="Arial" size="13" text-anchor="middle" font-weight="normal" font-style="normal" family="Arial" text-decoration="none"> watcher.before()</text></g></g><g id="ProcessOnG1129"><path id="ProcessOnPath1130" d="M487.0 1101.0L487.0 1127.0L384.0 1127.0L384.0 1137.7639320225003" stroke="#323232" stroke-width="2.0" stroke-dasharray="none" fill="none" marker-end="url(#ProcessOnMarker1131)"/></g><g id="ProcessOnG1133" transform="matrix(1.0,0.0,0.0,1.0,733.5,352.0)" opacity="1.0"><path id="ProcessOnPath1134" d="M0 0L183.0 0L183.0 69.0L0 69.0Z" stroke="#323232" stroke-width="2.0" stroke-dasharray="none" fill="#6ed464"/><g id="ProcessOnG1135" transform="matrix(1.0,0.0,0.0,1.0,10.0,26.375)"><text id="ProcessOnText1136" fill="#323232" font-size="13" x="80.5" y="13.325" font-family="Arial" size="13" text-anchor="middle" font-weight="normal" font-style="normal" family="Arial" text-decoration="none">get</text></g></g><g id="ProcessOnG1137"><path id="ProcessOnPath1138" d="M669.5 386.5L701.5 386.5L701.5 386.5L718.2639320225002 386.5" stroke="#323232" stroke-width="2.0" stroke-dasharray="none" fill="none" marker-end="url(#ProcessOnMarker1139)"/></g><g id="ProcessOnG1141" transform="matrix(1.0,0.0,0.0,1.0,952.5,316.0)" opacity="1.0"><path id="ProcessOnPath1142" d="M0 0L103.5 0L103.5 55.0L0 55.0Z" stroke="#323232" stroke-width="2.0" stroke-dasharray="none" fill="#6ed464"/><g id="ProcessOnG1143" transform="matrix(1.0,0.0,0.0,1.0,10.0,19.375)"><text id="ProcessOnText1144" fill="#323232" font-size="13" x="40.75" y="13.325" font-family="Arial" size="13" text-anchor="middle" font-weight="normal" font-style="normal" family="Arial" text-decoration="none">pushTarget</text></g></g><g id="ProcessOnG1145"><path id="ProcessOnPath1146" d="M916.5 386.5L934.5 386.5L934.5 343.5L937.2639320225002 343.5" stroke="#323232" stroke-width="2.0" stroke-dasharray="none" fill="none" marker-end="url(#ProcessOnMarker1147)"/></g><g id="ProcessOnG1149" transform="matrix(1.0,0.0,0.0,1.0,952.5,399.0)" opacity="1.0"><path id="ProcessOnPath1150" d="M0 0L147.5 0L147.5 54.0L0 54.0Z" stroke="#323232" stroke-width="2.0" stroke-dasharray="none" fill="#6ed464"/><g id="ProcessOnG1151" transform="matrix(1.0,0.0,0.0,1.0,10.0,18.875)"><text id="ProcessOnText1152" fill="#323232" font-size="13" x="62.75" y="13.325" font-family="Arial" size="13" text-anchor="middle" font-weight="normal" font-style="normal" family="Arial" text-decoration="none">updateComponent</text></g></g><g id="ProcessOnG1153"><path id="ProcessOnPath1154" d="M916.5 386.5L934.5 386.5L934.5 426.0L937.2639320225002 426.0" stroke="#323232" stroke-width="2.0" stroke-dasharray="none" fill="none" marker-end="url(#ProcessOnMarker1155)"/></g><g id="ProcessOnG1157" transform="matrix(1.0,0.0,0.0,1.0,965.5,488.0)" opacity="1.0"><path id="ProcessOnPath1158" d="M0 0L103.5 0L103.5 55.0L0 55.0Z" stroke="#323232" stroke-width="2.0" stroke-dasharray="none" fill="#6ed464"/><g id="ProcessOnG1159" transform="matrix(1.0,0.0,0.0,1.0,10.0,19.375)"><text id="ProcessOnText1160" fill="#323232" font-size="13" x="40.75" y="13.325" font-family="Arial" size="13" text-anchor="middle" font-weight="normal" font-style="normal" family="Arial" text-decoration="none">popTarget</text></g></g><g id="ProcessOnG1161"><path id="ProcessOnPath1162" d="M825.0 421.0L825.0 515.5L950.2639320225002 515.5" stroke="#323232" stroke-width="2.0" stroke-dasharray="none" fill="none" marker-end="url(#ProcessOnMarker1163)"/></g><g id="ProcessOnG1165" transform="matrix(1.0,0.0,0.0,1.0,846.5,665.0)" opacity="1.0"><path id="ProcessOnPath1166" d="M0 71.0C0 -23.666666666666668 167.5 -23.666666666666668 167.5 71.0C167.5 165.66666666666666 0 165.66666666666666 0 71.0Z" stroke="#323232" stroke-width="2.0" stroke-dasharray="none" fill="#6ed464"/><g id="ProcessOnG1167" transform="matrix(1.0,0.0,0.0,1.0,10.0,62.875)"><text id="ProcessOnText1168" fill="#323232" font-size="13" x="72.75" y="13.325" font-family="Arial" size="13" text-anchor="middle" font-weight="normal" font-style="normal" family="Arial" text-decoration="none">Dep</text></g></g><g id="ProcessOnG1169"><path id="ProcessOnPath1170" d="M1004.25 316.0L1004.25 286.0L1086.0 286.0L1086.0 736.0L1029.2360679774997 736.0" stroke="#323232" stroke-width="2.0" stroke-dasharray="none" fill="none" marker-end="url(#ProcessOnMarker1171)"/></g><g id="ProcessOnG1173"><path id="ProcessOnPath1174" d="M1017.25 543.0L1017.25 604.0L930.25 604.0L930.25 649.7639320225002" stroke="#323232" stroke-width="2.0" stroke-dasharray="none" fill="none" marker-end="url(#ProcessOnMarker1175)"/></g><g id="ProcessOnG1177" transform="matrix(1.0,0.0,0.0,1.0,437.0,701.0)" opacity="1.0"><path id="ProcessOnPath1178" d="M0 0L100.0 0L100.0 70.0L0 70.0Z" stroke="#323232" stroke-width="2.0" stroke-dasharray="none" fill="#6ed464"/><g id="ProcessOnG1179" transform="matrix(1.0,0.0,0.0,1.0,10.0,26.875)"><text id="ProcessOnText1180" fill="#323232" font-size="13" x="39.0" y="13.325" font-family="Arial" size="13" text-anchor="middle" font-weight="normal" font-style="normal" family="Arial" text-decoration="none">set</text></g></g><g id="ProcessOnG1181"><path id="ProcessOnPath1182" d="M374.0 736.0L405.5 736.0L405.5 736.0L421.7639320225002 736.0" stroke="#323232" stroke-width="2.0" stroke-dasharray="none" fill="none" marker-end="url(#ProcessOnMarker1183)"/></g><g id="ProcessOnG1185" transform="matrix(1.0,0.0,0.0,1.0,602.0,701.0)" opacity="1.0"><path id="ProcessOnPath1186" d="M0 0L100.0 0L100.0 70.0L0 70.0Z" stroke="#323232" stroke-width="2.0" stroke-dasharray="none" fill="#6ed464"/><g id="ProcessOnG1187" transform="matrix(1.0,0.0,0.0,1.0,10.0,26.875)"><text id="ProcessOnText1188" fill="#323232" font-size="13" x="39.0" y="13.325" font-family="Arial" size="13" text-anchor="middle" font-weight="normal" font-style="normal" family="Arial" text-decoration="none">dep.notify()</text></g></g><g id="ProcessOnG1189"><path id="ProcessOnPath1190" d="M537.0 736.0L569.5 736.0L569.5 736.0L586.7639320225002 736.0" stroke="#323232" stroke-width="2.0" stroke-dasharray="none" fill="none" marker-end="url(#ProcessOnMarker1191)"/></g><g id="ProcessOnG1193"><path id="ProcessOnPath1194" d="M652.0 771.0L652.0 847.0L591.2360679774998 847.0" stroke="#323232" stroke-width="2.0" stroke-dasharray="none" fill="none" marker-end="url(#ProcessOnMarker1195)"/></g><g id="ProcessOnG1197" transform="matrix(1.0,0.0,0.0,1.0,509.0,1153.0)" opacity="1.0"><path id="ProcessOnPath1198" d="M0 0L178.0 0L178.0 68.0L0 68.0Z" stroke="#323232" stroke-width="2.0" stroke-dasharray="none" fill="#6ed464"/><g id="ProcessOnG1199" transform="matrix(1.0,0.0,0.0,1.0,10.0,25.875)"><text id="ProcessOnText1200" fill="#323232" font-size="13" x="78.0" y="13.325" font-family="Arial" size="13" text-anchor="middle" font-weight="normal" font-style="normal" family="Arial" text-decoration="none"> watcher.run()</text></g></g><g id="ProcessOnG1201"><path id="ProcessOnPath1202" d="M487.0 1101.0L487.0 1127.0L598.0 1127.0L598.0 1137.7639320225003" stroke="#323232" stroke-width="2.0" stroke-dasharray="none" fill="none" marker-end="url(#ProcessOnMarker1203)"/></g><g id="ProcessOnG1205"><path id="ProcessOnPath1206" d="M687.0 1187.0L710.25 1187.0L710.25 322.0L825.0 322.0L825.0 336.7639320225002" stroke="#323232" stroke-width="2.0" stroke-dasharray="none" fill="none" marker-end="url(#ProcessOnMarker1207)"/></g><g id="ProcessOnG1209" transform="matrix(1.0,0.0,0.0,1.0,857.0,881.0)" opacity="1.0"><path id="ProcessOnPath1210" d="M0 0L188.0 0L188.0 201.0L0 201.0Z" stroke="none" stroke-width="0.0" stroke-dasharray="none" fill="none"/><g id="ProcessOnG1211" transform="matrix(1.0,0.0,0.0,1.0,0.0,0.0)"><text id="ProcessOnText1212" fill="#323232" font-size="13" x="0.0" y="13.325" font-family="Arial" size="13" text-anchor="start" font-weight="normal" font-style="normal" family="Arial" text-decoration="none">观察者模式</text><text id="ProcessOnText1213" fill="#323232" font-size="13" x="0.0" y="29.575" font-family="Arial" size="13" text-anchor="start" font-weight="normal" font-style="normal" family="Arial" text-decoration="none">Dep作为中转站，在new Watcher()</text><text id="ProcessOnText1214" fill="#323232" font-size="13" x="0.0" y="45.825" font-family="Arial" size="13" text-anchor="start" font-weight="normal" font-style="normal" family="Arial" text-decoration="none">的过程中，将当前watcher加入到Dep.t</text><text id="ProcessOnText1215" fill="#323232" font-size="13" x="0.0" y="62.075" font-family="Arial" size="13" text-anchor="start" font-weight="normal" font-style="normal" family="Arial" text-decoration="none">argets对象中，当数据发生改变时，调用</text><text id="ProcessOnText1216" fill="#323232" font-size="13" x="0.0" y="78.325" font-family="Arial" size="13" text-anchor="start" font-weight="normal" font-style="normal" family="Arial" text-decoration="none">dep.notify方法，遍历其中的每个watc</text><text id="ProcessOnText1217" fill="#323232" font-size="13" x="0.0" y="94.575" font-family="Arial" size="13" text-anchor="start" font-weight="normal" font-style="normal" family="Arial" text-decoration="none">her,调用每个watcher.run方法，执行</text><text id="ProcessOnText1218" fill="#323232" font-size="13" x="0.0" y="110.825" font-family="Arial" size="13" text-anchor="start" font-weight="normal" font-style="normal" family="Arial" text-decoration="none">视图的更新</text></g></g><g id="ProcessOnG1219" transform="matrix(1.0,0.0,0.0,1.0,850.25,1090.0)" opacity="1.0"><path id="ProcessOnPath1220" d="M0 0L160.0 0L160.0 40.0L0 40.0Z" stroke="none" stroke-width="0.0" stroke-dasharray="none" fill="none"/><g id="ProcessOnG1221" transform="matrix(1.0,0.0,0.0,1.0,0.0,-4.375)"><text id="ProcessOnText1222" fill="#323232" font-size="13" x="79.0" y="13.325" font-family="Arial" size="13" text-anchor="middle" font-weight="normal" font-style="normal" family="Arial" text-decoration="none">new Watcher是创建订阅者实例</text><text id="ProcessOnText1223" fill="#323232" font-size="13" x="79.0" y="29.575" font-family="Arial" size="13" text-anchor="middle" font-weight="normal" font-style="normal" family="Arial" text-decoration="none">，在实例化的过程中，将实例添加</text><text id="ProcessOnText1224" fill="#323232" font-size="13" x="79.0" y="45.825" font-family="Arial" size="13" text-anchor="middle" font-weight="normal" font-style="normal" family="Arial" text-decoration="none">到Dep的订阅者数组targets中</text></g></g></g></g></svg>