<svg xmlns="http://www.w3.org/2000/svg" xmlns:xlink="http://www.w3.org/1999/xlink" id="processonSvg1000" viewBox="6.0 28.0 1114.0 1347.0" width="1114.0" height="1347.0"><defs id="ProcessOnDefs1001"><marker id="ProcessOnMarker1023" markerUnits="userSpaceOnUse" orient="auto" markerWidth="16.23606797749979" markerHeight="10.550836550532098" viewBox="-1.0 -1.3763819204711736 16.23606797749979 10.550836550532098" refX="-1.0" refY="3.8990363547948754"><path id="ProcessOnPath1024" d="M12.0 3.8990363547948754L0.0 7.798072709589751V0.0Z" stroke="#323232" stroke-width="2.0" fill="#323232" transform="matrix(1.0,0.0,0.0,1.0,0.0,0.0)"/></marker><marker id="ProcessOnMarker1027" markerUnits="userSpaceOnUse" orient="auto" markerWidth="16.23606797749979" markerHeight="10.550836550532098" viewBox="-1.0 -1.3763819204711736 16.23606797749979 10.550836550532098" refX="-1.0" refY="3.8990363547948754"><path id="ProcessOnPath1028" d="M12.0 3.8990363547948754L0.0 7.798072709589751V0.0Z" stroke="#323232" stroke-width="2.0" fill="#323232" transform="matrix(1.0,0.0,0.0,1.0,0.0,0.0)"/></marker><marker id="ProcessOnMarker1031" markerUnits="userSpaceOnUse" orient="auto" markerWidth="16.23606797749979" markerHeight="10.550836550532098" viewBox="-1.0 -1.3763819204711736 16.23606797749979 10.550836550532098" refX="-1.0" refY="3.8990363547948754"><path id="ProcessOnPath1032" d="M12.0 3.8990363547948754L0.0 7.798072709589751V0.0Z" stroke="#323232" stroke-width="2.0" fill="#323232" transform="matrix(1.0,0.0,0.0,1.0,0.0,0.0)"/></marker><marker id="ProcessOnMarker1039" markerUnits="userSpaceOnUse" orient="auto" markerWidth="16.23606797749979" markerHeight="10.550836550532098" viewBox="-1.0 -1.3763819204711736 16.23606797749979 10.550836550532098" refX="-1.0" refY="3.8990363547948754"><path id="ProcessOnPath1040" d="M12.0 3.8990363547948754L0.0 7.798072709589751V0.0Z" stroke="#323232" stroke-width="2.0" fill="#323232" transform="matrix(1.0,0.0,0.0,1.0,0.0,0.0)"/></marker><marker id="ProcessOnMarker1047" markerUnits="userSpaceOnUse" orient="auto" markerWidth="16.23606797749979" markerHeight="10.550836550532098" viewBox="-1.0 -1.3763819204711736 16.23606797749979 10.550836550532098" refX="-1.0" refY="3.8990363547948754"><path id="ProcessOnPath1048" d="M12.0 3.8990363547948754L0.0 7.798072709589751V0.0Z" stroke="#323232" stroke-width="2.0" fill="#323232" transform="matrix(1.0,0.0,0.0,1.0,0.0,0.0)"/></marker><marker id="ProcessOnMarker1055" markerUnits="userSpaceOnUse" orient="auto" markerWidth="16.23606797749979" markerHeight="10.550836550532098" viewBox="-1.0 -1.3763819204711736 16.23606797749979 10.550836550532098" refX="-1.0" refY="3.8990363547948754"><path id="ProcessOnPath1056" d="M12.0 3.8990363547948754L0.0 7.798072709589751V0.0Z" stroke="#323232" stroke-width="2.0" fill="#323232" transform="matrix(1.0,0.0,0.0,1.0,0.0,0.0)"/></marker><marker id="ProcessOnMarker1067" markerUnits="userSpaceOnUse" orient="auto" markerWidth="16.23606797749979" markerHeight="10.550836550532098" viewBox="-1.0 -1.3763819204711736 16.23606797749979 10.550836550532098" refX="-1.0" refY="3.8990363547948754"><path id="ProcessOnPath1068" d="M12.0 3.8990363547948754L0.0 7.798072709589751V0.0Z" stroke="#323232" stroke-width="2.0" fill="#323232" transform="matrix(1.0,0.0,0.0,1.0,0.0,0.0)"/></marker><marker id="ProcessOnMarker1075" markerUnits="userSpaceOnUse" orient="auto" markerWidth="16.23606797749979" markerHeight="10.550836550532098" viewBox="-1.0 -1.3763819204711736 16.23606797749979 10.550836550532098" refX="-1.0" refY="3.8990363547948754"><path id="ProcessOnPath1076" d="M12.0 3.8990363547948754L0.0 7.798072709589751V0.0Z" stroke="#323232" stroke-width="2.0" fill="#323232" transform="matrix(1.0,0.0,0.0,1.0,0.0,0.0)"/></marker><marker id="ProcessOnMarker1083" markerUnits="userSpaceOnUse" orient="auto" markerWidth="16.23606797749979" markerHeight="10.550836550532098" viewBox="-1.0 -1.3763819204711736 16.23606797749979 10.550836550532098" refX="-1.0" refY="3.8990363547948754"><path id="ProcessOnPath1084" d="M12.0 3.8990363547948754L0.0 7.798072709589751V0.0Z" stroke="#323232" stroke-width="2.0" fill="#323232" transform="matrix(1.0,0.0,0.0,1.0,0.0,0.0)"/></marker><marker id="ProcessOnMarker1091" markerUnits="userSpaceOnUse" orient="auto" markerWidth="16.23606797749979" markerHeight="10.550836550532098" viewBox="-1.0 -1.3763819204711736 16.23606797749979 10.550836550532098" refX="-1.0" refY="3.8990363547948754"><path id="ProcessOnPath1092" d="M12.0 3.8990363547948754L0.0 7.798072709589751V0.0Z" stroke="#323232" stroke-width="2.0" fill="#323232" transform="matrix(1.0,0.0,0.0,1.0,0.0,0.0)"/></marker><marker id="ProcessOnMarker1111" markerUnits="userSpaceOnUse" orient="auto" markerWidth="16.23606797749979" markerHeight="10.550836550532098" viewBox="-1.0 -1.3763819204711736 16.23606797749979 10.550836550532098" refX="-1.0" refY="3.8990363547948754"><path id="ProcessOnPath1112" d="M12.0 3.8990363547948754L0.0 7.798072709589751V0.0Z" stroke="#323232" stroke-width="2.0" fill="#323232" transform="matrix(1.0,0.0,0.0,1.0,0.0,0.0)"/></marker><marker id="ProcessOnMarker1119" markerUnits="userSpaceOnUse" orient="auto" markerWidth="16.23606797749979" markerHeight="10.550836550532098" viewBox="-1.0 -1.3763819204711736 16.23606797749979 10.550836550532098" refX="-1.0" refY="3.8990363547948754"><path id="ProcessOnPath1120" d="M12.0 3.8990363547948754L0.0 7.798072709589751V0.0Z" stroke="#323232" stroke-width="2.0" fill="#323232" transform="matrix(1.0,0.0,0.0,1.0,0.0,0.0)"/></marker><marker id="ProcessOnMarker1127" markerUnits="userSpaceOnUse" orient="auto" markerWidth="16.23606797749979" markerHeight="10.550836550532098" viewBox="-1.0 -1.3763819204711736 16.23606797749979 10.550836550532098" refX="-1.0" refY="3.8990363547948754"><path id="ProcessOnPath1128" d="M12.0 3.8990363547948754L0.0 7.798072709589751V0.0Z" stroke="#323232" stroke-width="2.0" fill="#323232" transform="matrix(1.0,0.0,0.0,1.0,0.0,0.0)"/></marker><marker id="ProcessOnMarker1135" markerUnits="userSpaceOnUse" orient="auto" markerWidth="16.23606797749979" markerHeight="10.550836550532098" viewBox="-1.0 -1.3763819204711736 16.23606797749979 10.550836550532098" refX="-1.0" refY="3.8990363547948754"><path id="ProcessOnPath1136" d="M12.0 3.8990363547948754L0.0 7.798072709589751V0.0Z" stroke="#323232" stroke-width="2.0" fill="#323232" transform="matrix(1.0,0.0,0.0,1.0,0.0,0.0)"/></marker><marker id="ProcessOnMarker1143" markerUnits="userSpaceOnUse" orient="auto" markerWidth="16.23606797749979" markerHeight="10.550836550532098" viewBox="-1.0 -1.3763819204711736 16.23606797749979 10.550836550532098" refX="-1.0" refY="3.8990363547948754"><path id="ProcessOnPath1144" d="M12.0 3.8990363547948754L0.0 7.798072709589751V0.0Z" stroke="#323232" stroke-width="2.0" fill="#323232" transform="matrix(1.0,0.0,0.0,1.0,0.0,0.0)"/></marker><marker id="ProcessOnMarker1151" markerUnits="userSpaceOnUse" orient="auto" markerWidth="16.23606797749979" markerHeight="10.550836550532098" viewBox="-1.0 -1.3763819204711736 16.23606797749979 10.550836550532098" refX="-1.0" refY="3.8990363547948754"><path id="ProcessOnPath1152" d="M12.0 3.8990363547948754L0.0 7.798072709589751V0.0Z" stroke="#323232" stroke-width="2.0" fill="#323232" transform="matrix(1.0,0.0,0.0,1.0,0.0,0.0)"/></marker><marker id="ProcessOnMarker1159" markerUnits="userSpaceOnUse" orient="auto" markerWidth="16.23606797749979" markerHeight="10.550836550532098" viewBox="-1.0 -1.3763819204711736 16.23606797749979 10.550836550532098" refX="-1.0" refY="3.8990363547948754"><path id="ProcessOnPath1160" d="M12.0 3.8990363547948754L0.0 7.798072709589751V0.0Z" stroke="#323232" stroke-width="2.0" fill="#323232" transform="matrix(1.0,0.0,0.0,1.0,0.0,0.0)"/></marker><marker id="ProcessOnMarker1167" markerUnits="userSpaceOnUse" orient="auto" markerWidth="16.23606797749979" markerHeight="10.550836550532098" viewBox="-1.0 -1.3763819204711736 16.23606797749979 10.550836550532098" refX="-1.0" refY="3.8990363547948754"><path id="ProcessOnPath1168" d="M12.0 3.8990363547948754L0.0 7.798072709589751V0.0Z" stroke="#323232" stroke-width="2.0" fill="#323232" transform="matrix(1.0,0.0,0.0,1.0,0.0,0.0)"/></marker><marker id="ProcessOnMarker1171" markerUnits="userSpaceOnUse" orient="auto" markerWidth="16.23606797749979" markerHeight="10.550836550532098" viewBox="-1.0 -1.3763819204711736 16.23606797749979 10.550836550532098" refX="-1.0" refY="3.8990363547948754"><path id="ProcessOnPath1172" d="M12.0 3.8990363547948754L0.0 7.798072709589751V0.0Z" stroke="#323232" stroke-width="2.0" fill="#323232" transform="matrix(1.0,0.0,0.0,1.0,0.0,0.0)"/></marker><marker id="ProcessOnMarker1183" markerUnits="userSpaceOnUse" orient="auto" markerWidth="16.23606797749979" markerHeight="10.550836550532098" viewBox="-1.0 -1.3763819204711736 16.23606797749979 10.550836550532098" refX="-1.0" refY="3.8990363547948754"><path id="ProcessOnPath1184" d="M12.0 3.8990363547948754L0.0 7.798072709589751V0.0Z" stroke="#323232" stroke-width="2.0" fill="#323232" transform="matrix(1.0,0.0,0.0,1.0,0.0,0.0)"/></marker><marker id="ProcessOnMarker1187" markerUnits="userSpaceOnUse" orient="auto" markerWidth="16.23606797749979" markerHeight="10.550836550532098" viewBox="-1.0 -1.3763819204711736 16.23606797749979 10.550836550532098" refX="-1.0" refY="3.8990363547948754"><path id="ProcessOnPath1188" d="M12.0 3.8990363547948754L0.0 7.798072709589751V0.0Z" stroke="#323232" stroke-width="2.0" fill="#323232" transform="matrix(1.0,0.0,0.0,1.0,0.0,0.0)"/></marker><marker id="ProcessOnMarker1195" markerUnits="userSpaceOnUse" orient="auto" markerWidth="16.23606797749979" markerHeight="10.550836550532098" viewBox="-1.0 -1.3763819204711736 16.23606797749979 10.550836550532098" refX="-1.0" refY="3.8990363547948754"><path id="ProcessOnPath1196" d="M12.0 3.8990363547948754L0.0 7.798072709589751V0.0Z" stroke="#323232" stroke-width="2.0" fill="#323232" transform="matrix(1.0,0.0,0.0,1.0,0.0,0.0)"/></marker><marker id="ProcessOnMarker1199" markerUnits="userSpaceOnUse" orient="auto" markerWidth="16.23606797749979" markerHeight="10.550836550532098" viewBox="-1.0 -1.3763819204711736 16.23606797749979 10.550836550532098" refX="-1.0" refY="3.8990363547948754"><path id="ProcessOnPath1200" d="M12.0 3.8990363547948754L0.0 7.798072709589751V0.0Z" stroke="#323232" stroke-width="2.0" fill="#323232" transform="matrix(1.0,0.0,0.0,1.0,0.0,0.0)"/></marker><marker id="ProcessOnMarker1221" markerUnits="userSpaceOnUse" orient="auto" markerWidth="16.23606797749979" markerHeight="10.550836550532098" viewBox="-1.0 -1.3763819204711736 16.23606797749979 10.550836550532098" refX="-1.0" refY="3.8990363547948754"><path id="ProcessOnPath1222" d="M12.0 3.8990363547948754L0.0 7.798072709589751V0.0Z" stroke="#323232" stroke-width="2.0" fill="#323232" transform="matrix(1.0,0.0,0.0,1.0,0.0,0.0)"/></marker><marker id="ProcessOnMarker1225" markerUnits="userSpaceOnUse" orient="auto" markerWidth="16.23606797749979" markerHeight="10.550836550532098" viewBox="-1.0 -1.3763819204711736 16.23606797749979 10.550836550532098" refX="-1.0" refY="3.8990363547948754"><path id="ProcessOnPath1226" d="M12.0 3.8990363547948754L0.0 7.798072709589751V0.0Z" stroke="#323232" stroke-width="2.0" fill="#323232" transform="matrix(1.0,0.0,0.0,1.0,0.0,0.0)"/></marker><marker id="ProcessOnMarker1234" markerUnits="userSpaceOnUse" orient="auto" markerWidth="16.23606797749979" markerHeight="10.550836550532098" viewBox="-1.0 -1.3763819204711736 16.23606797749979 10.550836550532098" refX="-1.0" refY="3.8990363547948754"><path id="ProcessOnPath1235" d="M12.0 3.8990363547948754L0.0 7.798072709589751V0.0Z" stroke="#323232" stroke-width="2.0" fill="#323232" transform="matrix(1.0,0.0,0.0,1.0,0.0,0.0)"/></marker><marker id="ProcessOnMarker1243" markerUnits="userSpaceOnUse" orient="auto" markerWidth="16.23606797749979" markerHeight="10.550836550532098" viewBox="-1.0 -1.3763819204711736 16.23606797749979 10.550836550532098" refX="-1.0" refY="3.8990363547948754"><path id="ProcessOnPath1244" d="M12.0 3.8990363547948754L0.0 7.798072709589751V0.0Z" stroke="#323232" stroke-width="2.0" fill="#323232" transform="matrix(1.0,0.0,0.0,1.0,0.0,0.0)"/></marker><marker id="ProcessOnMarker1256" markerUnits="userSpaceOnUse" orient="auto" markerWidth="16.23606797749979" markerHeight="10.550836550532098" viewBox="-1.0 -1.3763819204711736 16.23606797749979 10.550836550532098" refX="-1.0" refY="3.8990363547948754"><path id="ProcessOnPath1257" d="M12.0 3.8990363547948754L0.0 7.798072709589751V0.0Z" stroke="#323232" stroke-width="2.0" fill="#323232" transform="matrix(1.0,0.0,0.0,1.0,0.0,0.0)"/></marker><marker id="ProcessOnMarker1273" markerUnits="userSpaceOnUse" orient="auto" markerWidth="16.23606797749979" markerHeight="10.550836550532098" viewBox="-1.0 -1.3763819204711736 16.23606797749979 10.550836550532098" refX="-1.0" refY="3.8990363547948754"><path id="ProcessOnPath1274" d="M12.0 3.8990363547948754L0.0 7.798072709589751V0.0Z" stroke="#ff3333" stroke-width="2.0" fill="#ff3333" transform="matrix(1.0,0.0,0.0,1.0,0.0,0.0)"/></marker></defs><g id="ProcessOnG1002"><path id="ProcessOnPath1003" d="M6.0 28.0H1120.0V1375.0H6.0V28.0Z" fill="none"/><g id="ProcessOnG1004"><g id="ProcessOnG1005" transform="matrix(1.0,0.0,0.0,1.0,528.0,48.0)" opacity="1.0"><path id="ProcessOnPath1006" d="M16.666666666666668 0L83.33333333333333 0C105.55555555555556 0 105.55555555555556 50.0 83.33333333333333 50.0L16.666666666666668 50.0C-5.555555555555556 50.0 -5.555555555555556 0 16.666666666666668 0Z" stroke="#323232" stroke-width="2.0" stroke-dasharray="none" fill="#6ed464"/><g id="ProcessOnG1007" transform="matrix(1.0,0.0,0.0,1.0,10.0,16.875)"><text id="ProcessOnText1008" fill="#323232" font-size="13" x="39.0" y="13.325" font-family="Arial" size="13" text-anchor="middle" font-weight="normal" font-style="normal" family="Arial" text-decoration="none">vm._init</text></g></g><g id="ProcessOnG1009" transform="matrix(1.0,0.0,0.0,1.0,509.0,133.0)" opacity="1.0"><path id="ProcessOnPath1010" d="M0 0L138.0 0L138.0 70.0L0 70.0Z" stroke="#323232" stroke-width="2.0" stroke-dasharray="none" fill="#6ed464"/><g id="ProcessOnG1011" transform="matrix(1.0,0.0,0.0,1.0,10.0,26.875)"><text id="ProcessOnText1012" fill="#323232" font-size="13" x="58.0" y="13.325" font-family="Arial" size="13" text-anchor="middle" font-weight="normal" font-style="normal" family="Arial" text-decoration="none">initState(vm)</text></g></g><g id="ProcessOnG1013" transform="matrix(1.0,0.0,0.0,1.0,509.0,243.0)" opacity="1.0"><path id="ProcessOnPath1014" d="M0 0L138.0 0L138.0 70.0L0 70.0Z" stroke="#323232" stroke-width="2.0" stroke-dasharray="none" fill="#6ed464"/><g id="ProcessOnG1015" transform="matrix(1.0,0.0,0.0,1.0,10.0,26.875)"><text id="ProcessOnText1016" fill="#323232" font-size="13" x="58.0" y="13.325" font-family="Arial" size="13" text-anchor="middle" font-weight="normal" font-style="normal" family="Arial" text-decoration="none">mountComponent</text></g></g><g id="ProcessOnG1017" transform="matrix(1.0,0.0,0.0,1.0,486.5,352.0)" opacity="1.0"><path id="ProcessOnPath1018" d="M0 0L183.0 0L183.0 69.0L0 69.0Z" stroke="#323232" stroke-width="2.0" stroke-dasharray="none" fill="#6ed464"/><g id="ProcessOnG1019" transform="matrix(1.0,0.0,0.0,1.0,10.0,26.375)"><text id="ProcessOnText1020" fill="#323232" font-size="13" x="80.5" y="13.325" font-family="Arial" size="13" text-anchor="middle" font-weight="normal" font-style="normal" family="Arial" text-decoration="none">new Watcher(arguments)</text></g></g><g id="ProcessOnG1021"><path id="ProcessOnPath1022" d="M578.0 98.0L578.0 115.5L578.0 115.5L578.0 117.76393202250021" stroke="#323232" stroke-width="2.0" stroke-dasharray="none" fill="none" marker-end="url(#ProcessOnMarker1023)"/></g><g id="ProcessOnG1025"><path id="ProcessOnPath1026" d="M578.0 203.0L578.0 223.0L578.0 223.0L578.0 227.7639320225002" stroke="#323232" stroke-width="2.0" stroke-dasharray="none" fill="none" marker-end="url(#ProcessOnMarker1027)"/></g><g id="ProcessOnG1029"><path id="ProcessOnPath1030" d="M578.0 313.0L578.0 332.5L578.0 332.5L578.0 336.7639320225002" stroke="#323232" stroke-width="2.0" stroke-dasharray="none" fill="none" marker-end="url(#ProcessOnMarker1031)"/></g><g id="ProcessOnG1033" transform="matrix(1.0,0.0,0.0,1.0,528.0,499.0)" opacity="1.0"><path id="ProcessOnPath1034" d="M0 0L100.0 0L100.0 70.0L0 70.0Z" stroke="#323232" stroke-width="2.0" stroke-dasharray="none" fill="#6ed464"/><g id="ProcessOnG1035" transform="matrix(1.0,0.0,0.0,1.0,10.0,26.875)"><text id="ProcessOnText1036" fill="#323232" font-size="13" x="39.0" y="13.325" font-family="Arial" size="13" text-anchor="middle" font-weight="normal" font-style="normal" family="Arial" text-decoration="none">render</text></g></g><g id="ProcessOnG1037"><path id="ProcessOnPath1038" d="M578.0 421.0L578.0 460.0L578.0 460.0L578.0 483.7639320225002" stroke="#323232" stroke-width="2.0" stroke-dasharray="none" fill="none" marker-end="url(#ProcessOnMarker1039)"/></g><g id="ProcessOnG1041" transform="matrix(1.0,0.0,0.0,1.0,486.5,596.0)" opacity="1.0"><path id="ProcessOnPath1042" d="M0 0L183.0 0L183.0 69.0L0 69.0Z" stroke="#323232" stroke-width="2.0" stroke-dasharray="none" fill="#6ed464"/><g id="ProcessOnG1043" transform="matrix(1.0,0.0,0.0,1.0,10.0,26.375)"><text id="ProcessOnText1044" fill="#323232" font-size="13" x="80.5" y="13.325" font-family="Arial" size="13" text-anchor="middle" font-weight="normal" font-style="normal" family="Arial" text-decoration="none">componentDidMount</text></g></g><g id="ProcessOnG1045"><path id="ProcessOnPath1046" d="M578.0 569.0L578.0 582.5L578.0 582.5L578.0 583.5" stroke="#323232" stroke-width="2.0" stroke-dasharray="none" fill="none" marker-end="url(#ProcessOnMarker1047)"/></g><g id="ProcessOnG1049" transform="matrix(1.0,0.0,0.0,1.0,255.0,133.0)" opacity="1.0"><path id="ProcessOnPath1050" d="M0 0L138.0 0L138.0 70.0L0 70.0Z" stroke="#323232" stroke-width="2.0" stroke-dasharray="none" fill="#6ed464"/><g id="ProcessOnG1051" transform="matrix(1.0,0.0,0.0,1.0,10.0,26.875)"><text id="ProcessOnText1052" fill="#323232" font-size="13" x="58.0" y="13.325" font-family="Arial" size="13" text-anchor="middle" font-weight="normal" font-style="normal" family="Arial" text-decoration="none">initData(vm)</text></g></g><g id="ProcessOnG1053"><path id="ProcessOnPath1054" d="M509.0 168.0L451.0 168.0L451.0 168.0L408.2360679774998 168.0" stroke="#323232" stroke-width="2.0" stroke-dasharray="none" fill="none" marker-end="url(#ProcessOnMarker1055)"/></g><g id="ProcessOnG1057" transform="matrix(1.0,0.0,0.0,1.0,371.0,133.0)" opacity="1.0"><path id="ProcessOnPath1058" d="M0 0L160.0 0L160.0 40.0L0 40.0Z" stroke="none" stroke-width="0.0" stroke-dasharray="none" fill="none"/><g id="ProcessOnG1059" transform="matrix(1.0,0.0,0.0,1.0,0.0,11.875)"><text id="ProcessOnText1060" fill="#323232" font-size="13" x="79.0" y="13.325" font-family="Arial" size="13" text-anchor="middle" font-weight="normal" font-style="normal" family="Arial" text-decoration="none">vm.$options.data</text></g></g><g id="ProcessOnG1061" transform="matrix(1.0,0.0,0.0,1.0,196.0,254.0)" opacity="1.0"><path id="ProcessOnPath1062" d="M0 0L256.0 0L256.0 62.0L0 62.0Z" stroke="#323232" stroke-width="2.0" stroke-dasharray="none" fill="#6ed464"/><g id="ProcessOnG1063" transform="matrix(1.0,0.0,0.0,1.0,10.0,22.875)"><text id="ProcessOnText1064" fill="#323232" font-size="13" x="117.0" y="13.325" font-family="Arial" size="13" text-anchor="middle" font-weight="normal" font-style="normal" family="Arial" text-decoration="none">observe(data, true /* asRootData */)</text></g></g><g id="ProcessOnG1065"><path id="ProcessOnPath1066" d="M324.0 203.0L324.0 228.5L324.0 228.5L324.0 238.7639320225002" stroke="#323232" stroke-width="2.0" stroke-dasharray="none" fill="none" marker-end="url(#ProcessOnMarker1067)"/></g><g id="ProcessOnG1069" transform="matrix(1.0,0.0,0.0,1.0,235.0,365.0)" opacity="1.0"><path id="ProcessOnPath1070" d="M0 0L178.0 0L178.0 68.0L0 68.0Z" stroke="#323232" stroke-width="2.0" stroke-dasharray="none" fill="#6ed464"/><g id="ProcessOnG1071" transform="matrix(1.0,0.0,0.0,1.0,10.0,25.875)"><text id="ProcessOnText1072" fill="#323232" font-size="13" x="78.0" y="13.325" font-family="Arial" size="13" text-anchor="middle" font-weight="normal" font-style="normal" family="Arial" text-decoration="none">  ob = new Observer(data)</text></g></g><g id="ProcessOnG1073"><path id="ProcessOnPath1074" d="M324.0 316.0L324.0 340.5L324.0 340.5L324.0 349.7639320225002" stroke="#323232" stroke-width="2.0" stroke-dasharray="none" fill="none" marker-end="url(#ProcessOnMarker1075)"/></g><g id="ProcessOnG1077" transform="matrix(1.0,0.0,0.0,1.0,274.0,493.0)" opacity="1.0"><path id="ProcessOnPath1078" d="M0 0L100.0 0L100.0 70.0L0 70.0Z" stroke="#323232" stroke-width="2.0" stroke-dasharray="none" fill="#6ed464"/><g id="ProcessOnG1079" transform="matrix(1.0,0.0,0.0,1.0,10.0,26.875)"><text id="ProcessOnText1080" fill="#323232" font-size="13" x="39.0" y="13.325" font-family="Arial" size="13" text-anchor="middle" font-weight="normal" font-style="normal" family="Arial" text-decoration="none">walk(data)</text></g></g><g id="ProcessOnG1081"><path id="ProcessOnPath1082" d="M324.0 433.0L324.0 463.0L324.0 463.0L324.0 477.7639320225002" stroke="#323232" stroke-width="2.0" stroke-dasharray="none" fill="none" marker-end="url(#ProcessOnMarker1083)"/></g><g id="ProcessOnG1085" transform="matrix(1.0,0.0,0.0,1.0,217.75,596.0)" opacity="1.0"><path id="ProcessOnPath1086" d="M0 0L212.5 0L212.5 69.0L0 69.0Z" stroke="#323232" stroke-width="2.0" stroke-dasharray="none" fill="#6ed464"/><g id="ProcessOnG1087" transform="matrix(1.0,0.0,0.0,1.0,10.0,26.375)"><text id="ProcessOnText1088" fill="#323232" font-size="13" x="95.25" y="13.325" font-family="Arial" size="13" text-anchor="middle" font-weight="normal" font-style="normal" family="Arial" text-decoration="none">defineReactive(data, keys[i])</text></g></g><g id="ProcessOnG1089"><path id="ProcessOnPath1090" d="M324.0 563.0L324.0 579.5L324.0 579.5L324.0 580.7639320225002" stroke="#323232" stroke-width="2.0" stroke-dasharray="none" fill="none" marker-end="url(#ProcessOnMarker1091)"/></g><g id="ProcessOnG1093" transform="matrix(1.0,0.0,0.0,1.0,178.0,540.0)" opacity="1.0"><path id="ProcessOnPath1094" d="M0 0L160.0 0L160.0 40.0L0 40.0Z" stroke="none" stroke-width="0.0" stroke-dasharray="none" fill="none"/><g id="ProcessOnG1095" transform="matrix(1.0,0.0,0.0,1.0,0.0,11.875)"><text id="ProcessOnText1096" fill="#323232" font-size="13" x="79.0" y="13.325" font-family="Arial" size="13" text-anchor="middle" font-weight="normal" font-style="normal" family="Arial" text-decoration="none">遍历data的每个属性</text></g></g><g id="ProcessOnG1097" transform="matrix(1.0,0.0,0.0,1.0,107.0,701.0)" opacity="1.0"><path id="ProcessOnPath1098" d="M0 0L100.0 0L100.0 70.0L0 70.0Z" stroke="#323232" stroke-width="2.0" stroke-dasharray="none" fill="#6ed464"/><g id="ProcessOnG1099" transform="matrix(1.0,0.0,0.0,1.0,10.0,26.875)"><text id="ProcessOnText1100" fill="#323232" font-size="13" x="39.0" y="13.325" font-family="Arial" size="13" text-anchor="middle" font-weight="normal" font-style="normal" family="Arial" text-decoration="none">get</text></g></g><g id="ProcessOnG1101" transform="matrix(1.0,0.0,0.0,1.0,398.0,813.0)" opacity="1.0"><path id="ProcessOnPath1102" d="M0 0L178.0 0L178.0 68.0L0 68.0Z" stroke="#323232" stroke-width="2.0" stroke-dasharray="none" fill="#6ed464"/><g id="ProcessOnG1103" transform="matrix(1.0,0.0,0.0,1.0,10.0,25.875)"><text id="ProcessOnText1104" fill="#323232" font-size="13" x="78.0" y="13.325" font-family="Arial" size="13" text-anchor="middle" font-weight="normal" font-style="normal" family="Arial" text-decoration="none"> subs[i].update()</text></g></g><g id="ProcessOnG1105" transform="matrix(1.0,0.0,0.0,1.0,398.0,926.0)" opacity="1.0"><path id="ProcessOnPath1106" d="M0 0L178.0 0L178.0 68.0L0 68.0Z" stroke="#323232" stroke-width="2.0" stroke-dasharray="none" fill="#6ed464"/><g id="ProcessOnG1107" transform="matrix(1.0,0.0,0.0,1.0,10.0,25.875)"><text id="ProcessOnText1108" fill="#323232" font-size="13" x="78.0" y="13.325" font-family="Arial" size="13" text-anchor="middle" font-weight="normal" font-style="normal" family="Arial" text-decoration="none"> queueWatcher(watcher)</text></g></g><g id="ProcessOnG1109"><path id="ProcessOnPath1110" d="M487.0 881.0L487.0 903.5L487.0 903.5L487.0 910.7639320225002" stroke="#323232" stroke-width="2.0" stroke-dasharray="none" fill="none" marker-end="url(#ProcessOnMarker1111)"/></g><g id="ProcessOnG1113" transform="matrix(1.0,0.0,0.0,1.0,398.0,1033.0)" opacity="1.0"><path id="ProcessOnPath1114" d="M0 0L178.0 0L178.0 68.0L0 68.0Z" stroke="#323232" stroke-width="2.0" stroke-dasharray="none" fill="#6ed464"/><g id="ProcessOnG1115" transform="matrix(1.0,0.0,0.0,1.0,10.0,25.875)"><text id="ProcessOnText1116" fill="#323232" font-size="13" x="78.0" y="13.325" font-family="Arial" size="13" text-anchor="middle" font-weight="normal" font-style="normal" family="Arial" text-decoration="none">flushSchedulerQueue</text></g></g><g id="ProcessOnG1117"><path id="ProcessOnPath1118" d="M487.0 994.0L487.0 1013.5L487.0 1013.5L487.0 1017.7639320225002" stroke="#323232" stroke-width="2.0" stroke-dasharray="none" fill="none" marker-end="url(#ProcessOnMarker1119)"/></g><g id="ProcessOnG1121" transform="matrix(1.0,0.0,0.0,1.0,295.0,1153.0)" opacity="1.0"><path id="ProcessOnPath1122" d="M0 0L178.0 0L178.0 68.0L0 68.0Z" stroke="#323232" stroke-width="2.0" stroke-dasharray="none" fill="#6ed464"/><g id="ProcessOnG1123" transform="matrix(1.0,0.0,0.0,1.0,10.0,25.875)"><text id="ProcessOnText1124" fill="#323232" font-size="13" x="78.0" y="13.325" font-family="Arial" size="13" text-anchor="middle" font-weight="normal" font-style="normal" family="Arial" text-decoration="none"> watcher.before()</text></g></g><g id="ProcessOnG1125"><path id="ProcessOnPath1126" d="M487.0 1101.0L487.0 1127.0L384.0 1127.0L384.0 1137.7639320225003" stroke="#323232" stroke-width="2.0" stroke-dasharray="none" fill="none" marker-end="url(#ProcessOnMarker1127)"/></g><g id="ProcessOnG1129" transform="matrix(1.0,0.0,0.0,1.0,733.5,352.0)" opacity="1.0"><path id="ProcessOnPath1130" d="M0 0L183.0 0L183.0 69.0L0 69.0Z" stroke="#323232" stroke-width="2.0" stroke-dasharray="none" fill="#6ed464"/><g id="ProcessOnG1131" transform="matrix(1.0,0.0,0.0,1.0,10.0,26.375)"><text id="ProcessOnText1132" fill="#323232" font-size="13" x="80.5" y="13.325" font-family="Arial" size="13" text-anchor="middle" font-weight="normal" font-style="normal" family="Arial" text-decoration="none">get</text></g></g><g id="ProcessOnG1133"><path id="ProcessOnPath1134" d="M669.5 386.5L701.5 386.5L701.5 386.5L718.2639320225002 386.5" stroke="#323232" stroke-width="2.0" stroke-dasharray="none" fill="none" marker-end="url(#ProcessOnMarker1135)"/></g><g id="ProcessOnG1137" transform="matrix(1.0,0.0,0.0,1.0,952.5,316.0)" opacity="1.0"><path id="ProcessOnPath1138" d="M0 0L103.5 0L103.5 55.0L0 55.0Z" stroke="#323232" stroke-width="2.0" stroke-dasharray="none" fill="#6ed464"/><g id="ProcessOnG1139" transform="matrix(1.0,0.0,0.0,1.0,10.0,19.375)"><text id="ProcessOnText1140" fill="#323232" font-size="13" x="40.75" y="13.325" font-family="Arial" size="13" text-anchor="middle" font-weight="normal" font-style="normal" family="Arial" text-decoration="none">pushTarget</text></g></g><g id="ProcessOnG1141"><path id="ProcessOnPath1142" d="M916.5 386.5L934.5 386.5L934.5 343.5L937.2639320225002 343.5" stroke="#323232" stroke-width="2.0" stroke-dasharray="none" fill="none" marker-end="url(#ProcessOnMarker1143)"/></g><g id="ProcessOnG1145" transform="matrix(1.0,0.0,0.0,1.0,952.5,399.0)" opacity="1.0"><path id="ProcessOnPath1146" d="M0 0L147.5 0L147.5 54.0L0 54.0Z" stroke="#323232" stroke-width="2.0" stroke-dasharray="none" fill="#6ed464"/><g id="ProcessOnG1147" transform="matrix(1.0,0.0,0.0,1.0,10.0,18.875)"><text id="ProcessOnText1148" fill="#323232" font-size="13" x="62.75" y="13.325" font-family="Arial" size="13" text-anchor="middle" font-weight="normal" font-style="normal" family="Arial" text-decoration="none">updateComponent</text></g></g><g id="ProcessOnG1149"><path id="ProcessOnPath1150" d="M916.5 386.5L934.5 386.5L934.5 426.0L937.2639320225002 426.0" stroke="#323232" stroke-width="2.0" stroke-dasharray="none" fill="none" marker-end="url(#ProcessOnMarker1151)"/></g><g id="ProcessOnG1153" transform="matrix(1.0,0.0,0.0,1.0,965.5,488.0)" opacity="1.0"><path id="ProcessOnPath1154" d="M0 0L103.5 0L103.5 55.0L0 55.0Z" stroke="#323232" stroke-width="2.0" stroke-dasharray="none" fill="#6ed464"/><g id="ProcessOnG1155" transform="matrix(1.0,0.0,0.0,1.0,10.0,19.375)"><text id="ProcessOnText1156" fill="#323232" font-size="13" x="40.75" y="13.325" font-family="Arial" size="13" text-anchor="middle" font-weight="normal" font-style="normal" family="Arial" text-decoration="none">popTarget</text></g></g><g id="ProcessOnG1157"><path id="ProcessOnPath1158" d="M825.0 421.0L825.0 515.5L950.2639320225002 515.5" stroke="#323232" stroke-width="2.0" stroke-dasharray="none" fill="none" marker-end="url(#ProcessOnMarker1159)"/></g><g id="ProcessOnG1161" transform="matrix(1.0,0.0,0.0,1.0,846.5,665.0)" opacity="1.0"><path id="ProcessOnPath1162" d="M0 71.0C0 -23.666666666666668 167.5 -23.666666666666668 167.5 71.0C167.5 165.66666666666666 0 165.66666666666666 0 71.0Z" stroke="#323232" stroke-width="2.0" stroke-dasharray="none" fill="#6ed464"/><g id="ProcessOnG1163" transform="matrix(1.0,0.0,0.0,1.0,10.0,62.875)"><text id="ProcessOnText1164" fill="#323232" font-size="13" x="72.75" y="13.325" font-family="Arial" size="13" text-anchor="middle" font-weight="normal" font-style="normal" family="Arial" text-decoration="none">Dep</text></g></g><g id="ProcessOnG1165"><path id="ProcessOnPath1166" d="M1004.25 316.0L1004.25 286.0L1086.0 286.0L1086.0 736.0L1029.2360679774997 736.0" stroke="#323232" stroke-width="2.0" stroke-dasharray="none" fill="none" marker-end="url(#ProcessOnMarker1167)"/></g><g id="ProcessOnG1169"><path id="ProcessOnPath1170" d="M1017.25 543.0L1017.25 604.0L930.25 604.0L930.25 649.7639320225002" stroke="#323232" stroke-width="2.0" stroke-dasharray="none" fill="none" marker-end="url(#ProcessOnMarker1171)"/></g><g id="ProcessOnG1173" transform="matrix(1.0,0.0,0.0,1.0,428.0,701.0)" opacity="1.0"><path id="ProcessOnPath1174" d="M0 0L100.0 0L100.0 70.0L0 70.0Z" stroke="#323232" stroke-width="2.0" stroke-dasharray="none" fill="#6ed464"/><g id="ProcessOnG1175" transform="matrix(1.0,0.0,0.0,1.0,10.0,26.875)"><text id="ProcessOnText1176" fill="#323232" font-size="13" x="39.0" y="13.325" font-family="Arial" size="13" text-anchor="middle" font-weight="normal" font-style="normal" family="Arial" text-decoration="none">set</text></g></g><g id="ProcessOnG1177" transform="matrix(1.0,0.0,0.0,1.0,602.0,701.0)" opacity="1.0"><path id="ProcessOnPath1178" d="M0 0L100.0 0L100.0 70.0L0 70.0Z" stroke="#323232" stroke-width="2.0" stroke-dasharray="none" fill="#6ed464"/><g id="ProcessOnG1179" transform="matrix(1.0,0.0,0.0,1.0,10.0,26.875)"><text id="ProcessOnText1180" fill="#323232" font-size="13" x="39.0" y="13.325" font-family="Arial" size="13" text-anchor="middle" font-weight="normal" font-style="normal" family="Arial" text-decoration="none">dep.notify()</text></g></g><g id="ProcessOnG1181"><path id="ProcessOnPath1182" d="M528.0 736.0L565.0 736.0L565.0 736.0L586.7639320225002 736.0" stroke="#323232" stroke-width="2.0" stroke-dasharray="none" fill="none" marker-end="url(#ProcessOnMarker1183)"/></g><g id="ProcessOnG1185"><path id="ProcessOnPath1186" d="M652.0 771.0L652.0 847.0L591.2360679774998 847.0" stroke="#323232" stroke-width="2.0" stroke-dasharray="none" fill="none" marker-end="url(#ProcessOnMarker1187)"/></g><g id="ProcessOnG1189" transform="matrix(1.0,0.0,0.0,1.0,509.0,1153.0)" opacity="1.0"><path id="ProcessOnPath1190" d="M0 0L178.0 0L178.0 68.0L0 68.0Z" stroke="#323232" stroke-width="2.0" stroke-dasharray="none" fill="#6ed464"/><g id="ProcessOnG1191" transform="matrix(1.0,0.0,0.0,1.0,10.0,25.875)"><text id="ProcessOnText1192" fill="#323232" font-size="13" x="78.0" y="13.325" font-family="Arial" size="13" text-anchor="middle" font-weight="normal" font-style="normal" family="Arial" text-decoration="none"> watcher.run()</text></g></g><g id="ProcessOnG1193"><path id="ProcessOnPath1194" d="M487.0 1101.0L487.0 1127.0L598.0 1127.0L598.0 1137.7639320225003" stroke="#323232" stroke-width="2.0" stroke-dasharray="none" fill="none" marker-end="url(#ProcessOnMarker1195)"/></g><g id="ProcessOnG1197"><path id="ProcessOnPath1198" d="M687.0 1187.0L710.25 1187.0L710.25 322.0L825.0 322.0L825.0 336.7639320225002" stroke="#323232" stroke-width="2.0" stroke-dasharray="none" fill="none" marker-end="url(#ProcessOnMarker1199)"/></g><g id="ProcessOnG1201" transform="matrix(1.0,0.0,0.0,1.0,857.0,881.0)" opacity="1.0"><path id="ProcessOnPath1202" d="M0 0L188.0 0L188.0 201.0L0 201.0Z" stroke="none" stroke-width="0.0" stroke-dasharray="none" fill="none"/><g id="ProcessOnG1203" transform="matrix(1.0,0.0,0.0,1.0,0.0,0.0)"><text id="ProcessOnText1204" fill="#323232" font-size="13" x="0.0" y="13.325" font-family="Arial" size="13" text-anchor="start" font-weight="normal" font-style="normal" family="Arial" text-decoration="none">观察者模式</text><text id="ProcessOnText1205" fill="#323232" font-size="13" x="0.0" y="29.575" font-family="Arial" size="13" text-anchor="start" font-weight="normal" font-style="normal" family="Arial" text-decoration="none">Dep作为观察者，在new Watcher()</text><text id="ProcessOnText1206" fill="#323232" font-size="13" x="0.0" y="45.825" font-family="Arial" size="13" text-anchor="start" font-weight="normal" font-style="normal" family="Arial" text-decoration="none">的过程中，将访问数据时，触发get方法</text><text id="ProcessOnText1207" fill="#323232" font-size="13" x="0.0" y="62.075" font-family="Arial" size="13" text-anchor="start" font-weight="normal" font-style="normal" family="Arial" text-decoration="none">，调用dep.depend方法将watcher加</text><text id="ProcessOnText1208" fill="#323232" font-size="13" x="0.0" y="78.325" font-family="Arial" size="13" text-anchor="start" font-weight="normal" font-style="normal" family="Arial" text-decoration="none">入到Dep.targets对象中，当数据发生</text><text id="ProcessOnText1209" fill="#323232" font-size="13" x="0.0" y="94.575" font-family="Arial" size="13" text-anchor="start" font-weight="normal" font-style="normal" family="Arial" text-decoration="none">改变时，会触发setter方法，调用dep.n</text><text id="ProcessOnText1210" fill="#323232" font-size="13" x="0.0" y="110.825" font-family="Arial" size="13" text-anchor="start" font-weight="normal" font-style="normal" family="Arial" text-decoration="none">otify方法，遍历其中的每个watcher,调</text><text id="ProcessOnText1211" fill="#323232" font-size="13" x="0.0" y="127.075" font-family="Arial" size="13" text-anchor="start" font-weight="normal" font-style="normal" family="Arial" text-decoration="none">用每个watcher.run方法，执行视图的</text><text id="ProcessOnText1212" fill="#323232" font-size="13" x="0.0" y="143.325" font-family="Arial" size="13" text-anchor="start" font-weight="normal" font-style="normal" family="Arial" text-decoration="none">更新</text></g></g><g id="ProcessOnG1213" transform="matrix(1.0,0.0,0.0,1.0,850.25,1090.0)" opacity="1.0"><path id="ProcessOnPath1214" d="M0 0L160.0 0L160.0 40.0L0 40.0Z" stroke="none" stroke-width="0.0" stroke-dasharray="none" fill="none"/><g id="ProcessOnG1215" transform="matrix(1.0,0.0,0.0,1.0,0.0,-4.375)"><text id="ProcessOnText1216" fill="#323232" font-size="13" x="79.0" y="13.325" font-family="Arial" size="13" text-anchor="middle" font-weight="normal" font-style="normal" family="Arial" text-decoration="none">new Watcher是创建订阅者实例</text><text id="ProcessOnText1217" fill="#323232" font-size="13" x="79.0" y="29.575" font-family="Arial" size="13" text-anchor="middle" font-weight="normal" font-style="normal" family="Arial" text-decoration="none">，在实例化的过程中，将实例添加</text><text id="ProcessOnText1218" fill="#323232" font-size="13" x="79.0" y="45.825" font-family="Arial" size="13" text-anchor="middle" font-weight="normal" font-style="normal" family="Arial" text-decoration="none">到Dep的订阅者数组targets中</text></g></g><g id="ProcessOnG1219"><path id="ProcessOnPath1220" d="M217.75 630.5L157.0 630.5L157.0 685.7639320225002" stroke="#323232" stroke-width="2.0" stroke-dasharray="none" fill="none" marker-end="url(#ProcessOnMarker1221)"/></g><g id="ProcessOnG1223"><path id="ProcessOnPath1224" d="M430.25 630.5L478.0 630.5L478.0 685.7639320225002" stroke="#323232" stroke-width="2.0" stroke-dasharray="none" fill="none" marker-end="url(#ProcessOnMarker1225)"/></g><g id="ProcessOnG1227" transform="matrix(1.0,0.0,0.0,1.0,107.0,797.0)" opacity="1.0"><path id="ProcessOnPath1228" d="M0 0L100.0 0L100.0 70.0L0 70.0Z" stroke="#323232" stroke-width="2.0" stroke-dasharray="none" fill="#6ed464"/><g id="ProcessOnG1229" transform="matrix(1.0,0.0,0.0,1.0,10.0,18.75)"><text id="ProcessOnText1230" fill="#323232" font-size="13" x="39.0" y="13.325" font-family="Arial" size="13" text-anchor="middle" font-weight="normal" font-style="normal" family="Arial" text-decoration="none">dep.depend</text><text id="ProcessOnText1231" fill="#323232" font-size="13" x="39.0" y="29.575" font-family="Arial" size="13" text-anchor="middle" font-weight="normal" font-style="normal" family="Arial" text-decoration="none"></text></g></g><g id="ProcessOnG1232"><path id="ProcessOnPath1233" d="M157.0 771.0L157.0 784.0L157.0 784.0L157.0 785.0" stroke="#323232" stroke-width="2.0" stroke-dasharray="none" fill="none" marker-end="url(#ProcessOnMarker1234)"/></g><g id="ProcessOnG1236" transform="matrix(1.0,0.0,0.0,1.0,107.0,914.0)" opacity="1.0"><path id="ProcessOnPath1237" d="M0 0L100.0 0L100.0 70.0L0 70.0Z" stroke="#323232" stroke-width="2.0" stroke-dasharray="none" fill="#6ed464"/><g id="ProcessOnG1238" transform="matrix(1.0,0.0,0.0,1.0,10.0,18.75)"><text id="ProcessOnText1239" fill="#323232" font-size="13" x="39.0" y="13.325" font-family="Arial" size="13" text-anchor="middle" font-weight="normal" font-style="normal" family="Arial" text-decoration="none">addDep</text><text id="ProcessOnText1240" fill="#323232" font-size="13" x="39.0" y="29.575" font-family="Arial" size="13" text-anchor="middle" font-weight="normal" font-style="normal" family="Arial" text-decoration="none"></text></g></g><g id="ProcessOnG1241"><path id="ProcessOnPath1242" d="M157.0 867.0L157.0 890.5L157.0 890.5L157.0 898.7639320225002" stroke="#323232" stroke-width="2.0" stroke-dasharray="none" fill="none" marker-end="url(#ProcessOnMarker1243)"/></g><g id="ProcessOnG1245" transform="matrix(1.0,0.0,0.0,1.0,141.0,867.0)" opacity="1.0"><path id="ProcessOnPath1246" d="M0 0L160.0 0L160.0 40.0L0 40.0Z" stroke="none" stroke-width="0.0" stroke-dasharray="none" fill="none"/><g id="ProcessOnG1247" transform="matrix(1.0,0.0,0.0,1.0,0.0,11.875)"><text id="ProcessOnText1248" fill="#323232" font-size="13" x="79.0" y="13.325" font-family="Arial" size="13" text-anchor="middle" font-weight="normal" font-style="normal" family="Arial" text-decoration="none"> Dep.target.addDep</text></g></g><g id="ProcessOnG1249" transform="matrix(1.0,0.0,0.0,1.0,93.0,1012.0)" opacity="1.0"><path id="ProcessOnPath1250" d="M0 0L128.0 0L128.0 70.0L0 70.0Z" stroke="#323232" stroke-width="2.0" stroke-dasharray="none" fill="#6ed464"/><g id="ProcessOnG1251" transform="matrix(1.0,0.0,0.0,1.0,10.0,18.75)"><text id="ProcessOnText1252" fill="#323232" font-size="13" x="53.0" y="13.325" font-family="Arial" size="13" text-anchor="middle" font-weight="normal" font-style="normal" family="Arial" text-decoration="none">  dep.addSub(this)</text><text id="ProcessOnText1253" fill="#323232" font-size="13" x="53.0" y="29.575" font-family="Arial" size="13" text-anchor="middle" font-weight="normal" font-style="normal" family="Arial" text-decoration="none"></text></g></g><g id="ProcessOnG1254"><path id="ProcessOnPath1255" d="M157.0 984.0L157.0 998.0L157.0 998.0L157.0 999.0" stroke="#323232" stroke-width="2.0" stroke-dasharray="none" fill="none" marker-end="url(#ProcessOnMarker1256)"/></g><g id="ProcessOnG1258" transform="matrix(1.0,0.0,0.0,1.0,26.0,629.0)" opacity="1.0"><path id="ProcessOnPath1259" d="M0 0L160.0 0L160.0 40.0L0 40.0Z" stroke="none" stroke-width="0.0" stroke-dasharray="none" fill="none"/><g id="ProcessOnG1260" transform="matrix(1.0,0.0,0.0,1.0,0.0,11.875)"><text id="ProcessOnText1261" fill="#323232" font-size="13" x="79.0" y="13.325" font-family="Arial" size="13" text-anchor="middle" font-weight="normal" font-style="normal" family="Arial" text-decoration="none">设置getter</text></g></g><g id="ProcessOnG1262" transform="matrix(1.0,0.0,0.0,1.0,365.0,658.0)" opacity="1.0"><path id="ProcessOnPath1263" d="M0 0L160.0 0L160.0 40.0L0 40.0Z" stroke="none" stroke-width="0.0" stroke-dasharray="none" fill="none"/><g id="ProcessOnG1264" transform="matrix(1.0,0.0,0.0,1.0,0.0,11.875)"><text id="ProcessOnText1265" fill="#323232" font-size="13" x="79.0" y="13.325" font-family="Arial" size="13" text-anchor="middle" font-weight="normal" font-style="normal" family="Arial" text-decoration="none">设置setter</text></g></g><g id="ProcessOnG1266" transform="matrix(1.0,0.0,0.0,1.0,864.0,1178.0)" opacity="1.0"><path id="ProcessOnPath1267" d="M0 0L160.0 0L160.0 40.0L0 40.0Z" stroke="none" stroke-width="0.0" stroke-dasharray="none" fill="none"/><g id="ProcessOnG1268" transform="matrix(1.0,0.0,0.0,1.0,0.0,3.75)"><text id="ProcessOnText1269" fill="#323232" font-size="13" x="79.0" y="13.325" font-family="Arial" size="13" text-anchor="middle" font-weight="normal" font-style="normal" family="Arial" text-decoration="none">观察者通过addSub方法提供添加</text><text id="ProcessOnText1270" fill="#323232" font-size="13" x="79.0" y="29.575" font-family="Arial" size="13" text-anchor="middle" font-weight="normal" font-style="normal" family="Arial" text-decoration="none">订阅者的接口</text></g></g><g id="ProcessOnG1271"><path id="ProcessOnPath1272" d="M1026.25 453.0L1026.25 465.0L77.0 465.0L77.0 736.0L91.76393202250021 736.0" stroke="#ff3333" stroke-width="2.0" stroke-dasharray="none" fill="none" marker-end="url(#ProcessOnMarker1273)"/></g><g id="ProcessOnG1275" transform="matrix(1.0,0.0,0.0,1.0,57.75,413.0)" opacity="1.0"><path id="ProcessOnPath1276" d="M0 0L160.0 0L160.0 40.0L0 40.0Z" stroke="none" stroke-width="0.0" stroke-dasharray="none" fill="none"/><g id="ProcessOnG1277" transform="matrix(1.0,0.0,0.0,1.0,0.0,-4.375)"><text id="ProcessOnText1278" fill="#323232" font-size="13" x="79.0" y="13.325" font-family="Arial" size="13" text-anchor="middle" font-weight="normal" font-style="normal" family="Arial" text-decoration="none">执行update方法会触发render函</text><text id="ProcessOnText1279" fill="#323232" font-size="13" x="79.0" y="29.575" font-family="Arial" size="13" text-anchor="middle" font-weight="normal" font-style="normal" family="Arial" text-decoration="none">数，访问data中定义的数据，从而</text><text id="ProcessOnText1280" fill="#323232" font-size="13" x="79.0" y="45.825" font-family="Arial" size="13" text-anchor="middle" font-weight="normal" font-style="normal" family="Arial" text-decoration="none">触发watcher</text></g></g><g id="ProcessOnG1281" transform="matrix(1.0,0.0,0.0,1.0,95.0,1315.0)" opacity="1.0"><path id="ProcessOnPath1282" d="M0 0L160.0 0L160.0 40.0L0 40.0Z" stroke="none" stroke-width="0.0" stroke-dasharray="none" fill="none"/><g id="ProcessOnG1283" transform="matrix(1.0,0.0,0.0,1.0,0.0,11.875)"><text id="ProcessOnText1284" fill="#323232" font-size="13" x="79.0" y="13.325" font-family="Arial" size="13" text-anchor="middle" font-weight="normal" font-style="normal" family="Arial" text-decoration="none">如何保持Dep.target的唯一性的</text></g></g></g></g></svg>